<svg xmlns="http://www.w3.org/2000/svg" version="1.1" xmlns:xlink="http://www.w3.org/1999/xlink" xmlns:svgjs="http://svgjs.dev/svgjs" width="1000" height="1000" viewBox="0 0 1000 1000"><rect width="1000" height="1000" fill="#000000"></rect><g transform="matrix(0.7,0,0,0.7,149.57605563665675,399.47821539918255)"><svg viewBox="0 0 396 114" data-background-color="#000000" preserveAspectRatio="xMidYMid meet" height="287" width="1000" xmlns="http://www.w3.org/2000/svg" xmlns:xlink="http://www.w3.org/1999/xlink"><g id="tight-bounds" transform="matrix(1,0,0,1,0.24008861730862918,0.04075835549642193)"><svg viewBox="0 0 395.52 113.91850772467686" height="113.91850772467686" width="395.52"><g><svg viewBox="0 0 395.52 113.91850772467686" height="113.91850772467686" width="395.52"><g><svg viewBox="0 0 395.52 113.91850772467686" height="113.91850772467686" width="395.52"><g id="textblocktransform"><svg viewBox="0 0 395.52 113.91850772467686" height="113.91850772467686" width="395.52" id="textblock"><g><svg viewBox="0 0 395.52 113.91850772467686" height="113.91850772467686" width="395.52"><path d="M394.594 24.433C392.735 12.609 387.435 9.321 387.435 9.321 371.165-2.858 350.86-0.233 332.619 1.517 300.414 1.588 268.339 4.189 236.208 5.585 168.767 5.798 100.749 2.297 33.643 10.93 27.339 13.578-6.54 11.45 1.121 25.947 3.129 31.977 10.456 38.67 10.232 44.204 11.236 45.174 12.631 42.951 13.226 44.346 15.309 48.106 18.711 46.333 21.501 48.556 17.614 54.492 20.403 59.434 23.062 64.614 18.377 65.962 12.371 65.323 9.675 69.793 9.396 73.033 7.89 72.418 6.235 72.276 5.026 72.181 2.59 72.536 2.999 73.553 4.394 77.03-1.594 79.04 2.162 82.445-0.422 86.135 3.948 89.327 3.353 93.324 3.278 94.128 3.687 94.814 4.338 95.003 7.22 96.02 3.018 98.007 3.464 100.159 33.029 114.869 65.104 104.699 95.394 111.463 103.259 106.733 97.346 113.142 100.489 112.149 102.943 110.99 104.728 115.791 107.499 113.071 107.927 112.291 107.276 110.446 108.8 110.801 109.6 110.99 110.307 110.943 110.418 109.855 110.586 108.223 109.117 109.24 108.726 108.389 112.947 104.085 111.906 114.325 115.866 113.899 115.68 112.646 114.528 110.848 116.889 111.085 119.232 109.287 119.306 107.797 121.389 111.842 121.463 112.717 121.835 113.331 122.43 113.757 128.938 109.358 135.409 115.318 142.233 113.331 146.417 111.156 150.433 114.514 154.672 113.686 156.16 113.024 157.666 111.842 159.098 113.828 176.632 114.254 195.319 112.48 211.943 113.899 256.364 111.25 303.836 114.987 350.674 111.487 361.719 110.139 373.192 108.223 383.958 106.686 383.958 106.686 392.679 102.476 392.679 83.557S394.538 67.002 394.817 51.938C395.096 36.873 396.398 36.258 394.538 24.433Z" opacity="1" fill="#ffffff" data-fill-palette-color="tertiary"></path><g transform="matrix(1,0,0,1,55.76832,26.230666666666668)"><svg width="283.98335999999995" viewBox="4.95 -35.5 166.34 36" height="61.45717439134353" data-palette-color="#111111"><path d="M9.25-0.05L9.25-1.5 28.95-1.5 28.95-31.45 17.7-7.35 6.45-31.5 6.45 0 4.95-0.05 4.95-35.05 6.45-35.05 17.7-10.9 28.95-35 30.45-35.05 30.45 0 9.25-0.05ZM58.3-19.8L58.3-18.3 43.45-18.3 58.75-33.5 41.85-33.5 41.85-1.5 61.25-1.5 61.25 0 40.35 0 40.35-35 62.4-35 47.1-19.8 58.3-19.8ZM73.05 0L73.05-1.5 86.85-1.5 80.8-18.1 83.6-19.7Q87.05-21.6 87.05-25.75L87.05-25.75Q87.05-33.5 75.25-33.5L75.25-33.5 70.65-33.5 70.65 0 69.15 0 69.15-35 75.25-35Q81.85-35 85.2-32.58 88.55-30.15 88.55-25.75L88.55-25.75Q88.55-20.75 84.35-18.4L84.35-18.4 82.65-17.45 89 0 73.05 0ZM98.14-35L98.14 0 96.64 0 96.64-35 98.14-35ZM112.84 0L112.84 0 108.04 0 108.04-35 112.84-35Q120.04-35 125.04-29.7 130.04-24.4 130.04-17.5 130.04-10.6 125.04-5.3 120.04 0 112.84 0ZM109.54-1.5L112.84-1.5Q119.39-1.5 123.97-6.33 128.54-11.15 128.54-17.5 128.54-23.85 123.97-28.68 119.39-33.5 112.84-33.5L112.84-33.5 109.54-33.5 109.54-1.5ZM139.19-35L139.19 0 137.69 0 137.69-35 139.19-35ZM168.54-3.28Q165.79 0.5 159.64 0.5 153.49 0.5 150.74-3.28 147.99-7.05 147.99-15.05L147.99-15.05 147.99-19.95Q147.99-27.95 150.74-31.73 153.49-35.5 159.64-35.5 165.79-35.5 168.54-31.73 171.29-27.95 171.29-19.95L171.29-19.95 171.29-15.05Q171.29-7.05 168.54-3.28ZM163.84-33.38Q162.09-34 159.64-34 157.19-34 155.44-33.38 153.69-32.75 152.29-31.25 150.89-29.75 150.19-26.93 149.49-24.1 149.49-19.95L149.49-19.95 149.49-15.05Q149.49-10.9 150.19-8.08 150.89-5.25 152.29-3.75 153.69-2.25 155.44-1.63 157.19-1 159.64-1 162.09-1 163.84-1.63 165.59-2.25 166.99-3.75 168.39-5.25 169.09-8.08 169.79-10.9 169.79-15.05L169.79-15.05 169.79-19.95Q169.79-24.1 169.09-26.93 168.39-29.75 166.99-31.25 165.59-32.75 163.84-33.38Z" opacity="1" transform="matrix(1,0,0,1,0,0)" fill="#000000" class="wordmark-text-0" data-fill-palette-color="quaternary" id="text-0"></path></svg></g></svg></g></svg></g></svg></g><g></g></svg></g><defs></defs></svg><rect width="395.52" height="113.91850772467686" fill="none" stroke="none" visibility="hidden"></rect></g></svg></g></svg>